<svg xmlns="http://www.w3.org/2000/svg" width="28" height="28" fill="none">
        <path fill="#448FFF" fill-rule="evenodd"
              d="m15.567 7.634 1.663 1.637-7.371 7.485a.975.975 0 0 0 0 1.363.902.902 0 0 0 1.284-.002l8.11-8.238a3.116 3.116 0 0 0 0-4.357c-1.13-1.153-3.128-1.127-4.235.002L6.166 14.51a5.256 5.256 0 0 0 0 7.35c1.94 1.98 5.274 1.948 7.185-.001l10.323-10.485 1.663 1.637-10.322 10.483c-2.816 2.873-7.653 2.92-10.515 0a7.59 7.59 0 0 1 .002-10.62l8.852-8.986c2.01-2.05 5.512-2.096 7.566 0a5.45 5.45 0 0 1-.002 7.626l-8.105 8.233a3.233 3.233 0 0 1-4.621.005 3.31 3.31 0 0 1 .002-4.63l7.373-7.488Z"
              clip-rule="evenodd" />
</svg>